<svg xmlns="http://www.w3.org/2000/svg" version="1.1" xmlns:xlink="http://www.w3.org/1999/xlink" xmlns:svgjs="http://svgjs.dev/svgjs" width="1000" height="600" viewBox="0 200 1000 600"><rect width="1000" height="1000" fill="transparent"></rect><g transform="matrix(0.7,0,0,0.7,149.57575757575756,425.5871328671329)"><svg viewBox="0 0 396 84" data-background-color="#ffffff" preserveAspectRatio="xMidYMid meet" height="212" width="1000" xmlns="http://www.w3.org/2000/svg" xmlns:xlink="http://www.w3.org/1999/xlink"><g id="tight-bounds" transform="matrix(1,0,0,1,0.2400000000000091,0.12049082992479043)"><svg viewBox="0 0 395.52 83.75901834015042" height="83.75901834015042" width="395.52"><g><svg viewBox="0 0 395.52 83.75901834015042" height="83.75901834015042" width="395.52"><g><svg viewBox="0 0 395.52 83.75901834015042" height="83.75901834015042" width="395.52"><g><svg viewBox="0 0 395.52 83.75901834015042" height="83.75901834015042" width="395.52"><g><svg viewBox="0 0 395.52 83.75901834015042" height="83.75901834015042" width="395.52"><g transform="matrix(1,0,0,1,0,0)"><svg width="395.52" viewBox="3.0799999237060547 -38.650001525878906 185.02000427246094 39.19000244140625" height="83.75901834015042" data-palette-color="#414753"><path d="M3.08-5.08L7.2-11.35Q9.28-10.18 11.41-9.24 13.55-8.3 15.84-7.65 18.14-7.01 20.67-6.67 23.19-6.32 26.05-6.32L26.05-6.32Q29.49-6.32 31.91-6.77 34.33-7.23 35.85-8.02 37.38-8.81 38.07-9.91 38.77-11.01 38.77-12.3L38.77-12.3Q38.77-14.38 37.04-15.59 35.3-16.8 31.69-16.8L31.69-16.8Q30.1-16.8 28.34-16.59 26.59-16.38 24.79-16.14 23-15.89 21.25-15.69 19.51-15.48 17.97-15.48L17.97-15.48Q15.41-15.48 13.05-16.14 10.69-16.8 8.87-18.12 7.06-19.43 5.98-21.41 4.91-23.39 4.91-26.03L4.91-26.03Q4.91-27.59 5.33-29.13 5.76-30.66 6.7-32.07 7.64-33.47 9.13-34.68 10.62-35.89 12.73-36.77 14.84-37.65 17.61-38.15 20.39-38.65 23.93-38.65L23.93-38.65Q26.49-38.65 29.08-38.37 31.67-38.09 34.12-37.57 36.57-37.06 38.84-36.34 41.11-35.62 43.07-34.74L43.07-34.74 39.67-28.49Q38.06-29.2 36.21-29.8 34.35-30.4 32.32-30.83 30.3-31.27 28.14-31.53 25.98-31.79 23.73-31.79L23.73-31.79Q20.53-31.79 18.47-31.32 16.41-30.86 15.19-30.14 13.96-29.42 13.49-28.53 13.01-27.64 13.01-26.76L13.01-26.76Q13.01-25.05 14.55-23.96 16.09-22.88 19.24-22.88L19.24-22.88Q20.51-22.88 22.16-23.06 23.8-23.24 25.62-23.46 27.44-23.68 29.33-23.86 31.23-24.05 33.01-24.05L33.01-24.05Q36.38-24.05 38.98-23.29 41.58-22.53 43.33-21.13 45.09-19.73 46-17.74 46.9-15.75 46.9-13.28L46.9-13.28Q46.9-9.99 45.37-7.41 43.85-4.83 41.03-3.06 38.21-1.29 34.23-0.38 30.25 0.54 25.37 0.54L25.37 0.54Q22.14 0.54 19.07 0.13 15.99-0.27 13.17-1.01 10.35-1.76 7.8-2.8 5.25-3.83 3.08-5.08L3.08-5.08ZM50.51 0L68.43-38.16 76.63-38.16 95.09 0 86.96 0 83.91-6.42 61.62-6.42 58.66 0 50.51 0ZM64.57-12.79L80.86-12.79 72.6-30.13 64.57-12.79ZM96.11 0L114.03-38.16 122.24-38.16 140.69 0 132.56 0 129.51-6.42 107.22-6.42 104.27 0 96.11 0ZM110.18-12.79L126.46-12.79 118.21-30.13 110.18-12.79ZM144.28-5.08L148.41-11.35Q150.48-10.18 152.62-9.24 154.75-8.3 157.05-7.65 159.34-7.01 161.87-6.67 164.4-6.32 167.25-6.32L167.25-6.32Q170.7-6.32 173.11-6.77 175.53-7.23 177.06-8.02 178.58-8.81 179.28-9.91 179.97-11.01 179.97-12.3L179.97-12.3Q179.97-14.38 178.24-15.59 176.51-16.8 172.89-16.8L172.89-16.8Q171.31-16.8 169.55-16.59 167.79-16.38 166-16.14 164.2-15.89 162.46-15.69 160.71-15.48 159.17-15.48L159.17-15.48Q156.61-15.48 154.25-16.14 151.9-16.8 150.08-18.12 148.26-19.43 147.18-21.41 146.11-23.39 146.11-26.03L146.11-26.03Q146.11-27.59 146.54-29.13 146.97-30.66 147.91-32.07 148.85-33.47 150.33-34.68 151.82-35.89 153.94-36.77 156.05-37.65 158.82-38.15 161.59-38.65 165.13-38.65L165.13-38.65Q167.69-38.65 170.28-38.37 172.87-38.09 175.32-37.57 177.78-37.06 180.05-36.34 182.32-35.62 184.27-34.74L184.27-34.74 180.88-28.49Q179.26-29.2 177.41-29.8 175.55-30.4 173.53-30.83 171.5-31.27 169.34-31.53 167.18-31.79 164.93-31.79L164.93-31.79Q161.74-31.79 159.67-31.32 157.61-30.86 156.39-30.14 155.17-29.42 154.69-28.53 154.22-27.64 154.22-26.76L154.22-26.76Q154.22-25.05 155.75-23.96 157.29-22.88 160.44-22.88L160.44-22.88Q161.71-22.88 163.36-23.06 165.01-23.24 166.83-23.46 168.64-23.68 170.54-23.86 172.43-24.05 174.21-24.05L174.21-24.05Q177.58-24.05 180.18-23.29 182.78-22.53 184.54-21.13 186.3-19.73 187.2-17.74 188.1-15.75 188.1-13.28L188.1-13.28Q188.1-9.99 186.58-7.41 185.05-4.83 182.23-3.06 179.41-1.29 175.43-0.38 171.45 0.54 166.57 0.54L166.57 0.54Q163.35 0.54 160.27 0.13 157.19-0.27 154.37-1.01 151.56-1.76 149-2.8 146.45-3.83 144.28-5.08L144.28-5.08Z" opacity="1" transform="matrix(1,0,0,1,0,0)" fill="#000000" class="undefined-text-0" data-fill-palette-color="primary" id="text-0"></path></svg></g></svg></g></svg></g></svg></g><g></g></svg></g><defs></defs></svg><rect width="395.52" height="83.75901834015042" fill="none" stroke="none" visibility="hidden"></rect></g></svg></g></svg>
